<svg xmlns="http://www.w3.org/2000/svg" viewBox="0 0 64 64" fill="none">
  <title>ccgauge</title>
  <rect x="3" y="3" width="58" height="58" rx="16" fill="#6366F1"></rect>
  <rect x="3.75" y="3.75" width="56.5" height="56.5" rx="15.25" stroke="#FFFFFF" stroke-opacity="0.18" stroke-width="1.5"></rect>
  <path d="M15 39.5 A17 17 0 0 1 49 39.5" stroke="#FFFFFF" stroke-opacity="0.24" stroke-width="5" stroke-linecap="round"></path>
  <path d="M20.8 39.5 A11.2 11.2 0 0 1 43.2 39.5" stroke="#FFFFFF" stroke-opacity="0.2" stroke-width="1.8" stroke-linecap="round"></path>
  <path d="M15 39.5 A17 17 0 0 1 42.8 26" stroke="#FFFFFF" stroke-width="5" stroke-linecap="round"></path>
  <g stroke="#FFFFFF" stroke-linecap="round" stroke-width="2" stroke-opacity="0.54">
    <path d="M18.1 34.2 L15 32.4"></path>
    <path d="M24 28.5 L22.3 25.5"></path>
    <path d="M32 26.2 L32 22.8"></path>
    <path d="M40 28.5 L41.7 25.5"></path>
    <path d="M45.9 34.2 L49 32.4"></path>
  </g>
  <path d="M32 39.5 L42.8 26" stroke="#FFFFFF" stroke-width="3.4" stroke-linecap="round"></path>
  <circle cx="32" cy="39.5" r="4.8" fill="#FFFFFF"></circle>
  <circle cx="32" cy="39.5" r="2" fill="#4F46E5"></circle>
  <rect x="17" y="46" width="7" height="5" rx="2" fill="#34D399"></rect>
  <rect x="28.5" y="43" width="7" height="8" rx="2" fill="#FBBF24"></rect>
  <rect x="40" y="45" width="7" height="6" rx="2" fill="#93C5FD"></rect>
</svg>